<svg xmlns="http://www.w3.org/2000/svg" xmlns:xlink="http://www.w3.org/1999/xlink" width="468" zoomAndPan="magnify" viewBox="0 0 351 44.999999" height="60" preserveAspectRatio="xMidYMid meet" version="1.2"><defs/><g id="85dd439d46"><g style="fill:#000000;fill-opacity:1;"><g transform="translate(92.344572, 30.168322)"><path style="stroke:none" d="M 13.265625 0 L 12.546875 -2.40625 L 6.5625 -2.40625 L 5.84375 0 L 0.25 0 L 6.46875 -17.046875 L 12.84375 -17.046875 L 19.0625 0 Z M 7.703125 -6.21875 L 11.40625 -6.21875 L 9.609375 -12.296875 L 9.515625 -12.296875 Z M 7.703125 -6.21875 "/></g></g><g style="fill:#000000;fill-opacity:1;"><g transform="translate(110.21372, 30.168322)"><path style="stroke:none" d="M 9.96875 -17.34375 C 12.488281 -17.34375 14.484375 -16.710938 15.953125 -15.453125 C 17.429688 -14.191406 18.171875 -12.382812 18.171875 -10.03125 L 12.9375 -10.03125 C 12.9375 -11.019531 12.675781 -11.804688 12.15625 -12.390625 C 11.632812 -12.972656 10.894531 -13.265625 9.9375 -13.265625 C 8.832031 -13.265625 8.019531 -12.914062 7.5 -12.21875 C 6.976562 -11.519531 6.71875 -10.550781 6.71875 -9.3125 L 6.71875 -7.734375 C 6.71875 -6.503906 6.976562 -5.539062 7.5 -4.84375 C 8.019531 -4.144531 8.816406 -3.796875 9.890625 -3.796875 C 10.941406 -3.796875 11.738281 -4.066406 12.28125 -4.609375 C 12.832031 -5.148438 13.109375 -5.914062 13.109375 -6.90625 L 18.171875 -6.90625 C 18.171875 -4.582031 17.453125 -2.800781 16.015625 -1.5625 C 14.585938 -0.320312 12.570312 0.296875 9.96875 0.296875 C 7.050781 0.296875 4.84375 -0.441406 3.34375 -1.921875 C 1.851562 -3.410156 1.109375 -5.613281 1.109375 -8.53125 C 1.109375 -11.4375 1.851562 -13.628906 3.34375 -15.109375 C 4.84375 -16.597656 7.050781 -17.34375 9.96875 -17.34375 Z M 9.96875 -17.34375 "/></g></g><g style="fill:#000000;fill-opacity:1;"><g transform="translate(128.082869, 30.168322)"><path style="stroke:none" d="M 13.265625 0 L 12.546875 -2.40625 L 6.5625 -2.40625 L 5.84375 0 L 0.25 0 L 6.46875 -17.046875 L 12.84375 -17.046875 L 19.0625 0 Z M 7.703125 -6.21875 L 11.40625 -6.21875 L 9.609375 -12.296875 L 9.515625 -12.296875 Z M 7.703125 -6.21875 "/></g></g><g style="fill:#000000;fill-opacity:1;"><g transform="translate(145.952017, 30.168322)"><path style="stroke:none" d="M 9.21875 -17.046875 C 15.1875 -17.046875 18.171875 -14.207031 18.171875 -8.53125 C 18.171875 -2.84375 15.1875 0 9.21875 0 L 1.828125 0 L 1.828125 -17.046875 Z M 7.3125 -4.09375 L 9.125 -4.09375 C 11.414062 -4.09375 12.5625 -5.320312 12.5625 -7.78125 L 12.5625 -9.265625 C 12.5625 -11.722656 11.414062 -12.953125 9.125 -12.953125 L 7.3125 -12.953125 Z M 7.3125 -4.09375 "/></g></g><g style="fill:#000000;fill-opacity:1;"><g transform="translate(163.821166, 30.168322)"><path style="stroke:none" d="M 2.078125 0 L 2.078125 -17.046875 L 7.5625 -17.046875 L 7.5625 0 Z M 2.078125 0 "/></g></g><g style="fill:#000000;fill-opacity:1;"><g transform="translate(172.049326, 30.168322)"><path style="stroke:none" d="M 6.46875 0 L 0.421875 -17.046875 L 6.265625 -17.046875 L 9.6875 -5.65625 L 9.78125 -5.65625 L 13.234375 -17.046875 L 18.828125 -17.046875 L 12.8125 0 Z M 6.46875 0 "/></g></g><g style="fill:#000000;fill-opacity:1;"><g transform="translate(189.918475, 30.168322)"><path style="stroke:none" d="M 1.828125 -17.046875 L 16.578125 -17.046875 L 16.578125 -12.953125 L 7.3125 -12.953125 L 7.3125 -10.609375 L 15.234375 -10.609375 L 15.234375 -6.6875 L 7.3125 -6.6875 L 7.3125 -4.09375 L 16.75 -4.09375 L 16.75 0 L 1.828125 0 Z M 1.828125 -17.046875 "/></g></g><g style="fill:#000000;fill-opacity:1;"><g transform="translate(206.399715, 30.168322)"><path style="stroke:none" d="M 18.015625 -11.828125 C 18.015625 -10.785156 17.734375 -9.84375 17.171875 -9 C 16.609375 -8.15625 15.789062 -7.535156 14.71875 -7.140625 L 18.515625 0 L 12.359375 0 L 9.34375 -6.21875 L 7.3125 -6.21875 L 7.3125 0 L 1.828125 0 L 1.828125 -17.046875 L 12.265625 -17.046875 C 13.484375 -17.046875 14.523438 -16.8125 15.390625 -16.34375 C 16.265625 -15.875 16.921875 -15.238281 17.359375 -14.4375 C 17.796875 -13.632812 18.015625 -12.765625 18.015625 -11.828125 Z M 12.4375 -11.59375 C 12.4375 -12.039062 12.285156 -12.410156 11.984375 -12.703125 C 11.691406 -13.003906 11.332031 -13.15625 10.90625 -13.15625 L 7.3125 -13.15625 L 7.3125 -10.015625 L 10.90625 -10.015625 C 11.332031 -10.015625 11.691406 -10.164062 11.984375 -10.46875 C 12.285156 -10.769531 12.4375 -11.144531 12.4375 -11.59375 Z M 12.4375 -11.59375 "/></g></g><g style="fill:#000000;fill-opacity:1;"><g transform="translate(224.268871, 30.168322)"><path style="stroke:none" d="M 9 -17.34375 C 11.175781 -17.34375 12.96875 -16.898438 14.375 -16.015625 C 15.78125 -15.128906 16.5 -13.820312 16.53125 -12.09375 L 16.53125 -11.796875 L 11.40625 -11.796875 L 11.40625 -11.890625 C 11.40625 -12.390625 11.222656 -12.800781 10.859375 -13.125 C 10.492188 -13.457031 9.9375 -13.625 9.1875 -13.625 C 8.46875 -13.625 7.910156 -13.515625 7.515625 -13.296875 C 7.128906 -13.085938 6.9375 -12.828125 6.9375 -12.515625 C 6.9375 -12.066406 7.203125 -11.734375 7.734375 -11.515625 C 8.265625 -11.304688 9.113281 -11.085938 10.28125 -10.859375 C 11.65625 -10.578125 12.785156 -10.28125 13.671875 -9.96875 C 14.554688 -9.664062 15.328125 -9.164062 15.984375 -8.46875 C 16.640625 -7.78125 16.976562 -6.84375 17 -5.65625 C 17 -3.632812 16.316406 -2.132812 14.953125 -1.15625 C 13.585938 -0.1875 11.765625 0.296875 9.484375 0.296875 C 6.828125 0.296875 4.757812 -0.144531 3.28125 -1.03125 C 1.800781 -1.925781 1.0625 -3.507812 1.0625 -5.78125 L 6.25 -5.78125 C 6.25 -4.914062 6.46875 -4.335938 6.90625 -4.046875 C 7.351562 -3.765625 8.050781 -3.625 9 -3.625 C 9.6875 -3.625 10.257812 -3.695312 10.71875 -3.84375 C 11.175781 -3.988281 11.40625 -4.296875 11.40625 -4.765625 C 11.40625 -5.171875 11.148438 -5.476562 10.640625 -5.6875 C 10.140625 -5.894531 9.316406 -6.113281 8.171875 -6.34375 C 6.785156 -6.644531 5.640625 -6.953125 4.734375 -7.265625 C 3.828125 -7.585938 3.035156 -8.117188 2.359375 -8.859375 C 1.679688 -9.609375 1.34375 -10.617188 1.34375 -11.890625 C 1.34375 -13.753906 2.0625 -15.128906 3.5 -16.015625 C 4.945312 -16.898438 6.78125 -17.34375 9 -17.34375 Z M 9 -17.34375 "/></g></g><g style="fill:#000000;fill-opacity:1;"><g transform="translate(240.750112, 30.168322)"><path style="stroke:none" d="M 1.828125 -17.046875 L 16.578125 -17.046875 L 16.578125 -12.953125 L 7.3125 -12.953125 L 7.3125 -10.609375 L 15.234375 -10.609375 L 15.234375 -6.6875 L 7.3125 -6.6875 L 7.3125 -4.09375 L 16.75 -4.09375 L 16.75 0 L 1.828125 0 Z M 1.828125 -17.046875 "/></g></g><path style="fill:none;stroke-width:1;stroke-linecap:round;stroke-linejoin:miter;stroke:#000000;stroke-opacity:1;stroke-miterlimit:4;" d="M 0.497704 0.497571 L 189.466466 0.497571 " transform="matrix(0.75,0.00000000000000014,-0.00000000000000014,0.75,119.24391,34.161978)"/></g></svg>